<?xml version="1.0" standalone="no"?>
<!DOCTYPE svg PUBLIC "-//W3C//DTD SVG 1.1//EN" "http://www.w3.org/Graphics/SVG/1.1/DTD/svg11.dtd" >
<svg xmlns="http://www.w3.org/2000/svg">
<metadata>
This is a custom SVG webfont generated by Font Squirrel.
Copyright   : Copyright 1999 Agfa Corporation All Rights Reserved
</metadata>
<defs>
<font id="EurostileBoldRegular" horiz-adv-x="1475" >
<font-face units-per-em="2048" ascent="1638" descent="-410" />
<missing-glyph horiz-adv-x="737" />
<glyph unicode=" "  horiz-adv-x="737" />
<glyph unicode="&#x09;" horiz-adv-x="737" />
<glyph unicode="&#xa0;" horiz-adv-x="737" />
<glyph unicode="!" horiz-adv-x="715" d="M166 1536h384l-16 -930h-352zM192 0v356h332v-356h-332z" />
<glyph unicode="&#x22;" horiz-adv-x="905" d="M535 1272v264h285v-264l-88 -264h-109zM80 1272v264h285v-264l-88 -264h-109z" />
<glyph unicode="#" d="M170 370v238h231l47 272h-192v238h237l76 418h219l-76 -418h202l77 418h213l-76 -418h161v-238h-198l-49 -272h186v-238h-235l-66 -370h-219l67 370h-198l-66 -370h-219l66 370h-188zM620 608h203l51 272h-205z" />
<glyph unicode="$" d="M49 496h371q0 -112 36 -151t161 -39h227q140 0 177 37t37 121q0 88 -38 118q-37 30 -167 43q-95 8 -221 13t-155 8q-246 18 -328 111t-82 321q0 298 122 386t443 88v160h201v-160q326 -15 436 -115q111 -99 111 -349h-371q0 88 -40 115t-133 27h-235q-95 0 -129 -37 t-34 -117q0 -72 38 -97t177 -34q122 -8 315 -30q315 -40 388 -152t73 -284q0 -275 -130 -385q-129 -110 -466 -110v-192h-201v192q-356 0 -470 125q-113 125 -113 387z" />
<glyph unicode="%" horiz-adv-x="1858" d="M48 1053v204q0 180 62 237q63 58 263 58q209 0 277 -56q69 -56 69 -233v-209q0 -181 -70 -236q-69 -54 -284 -54q-220 0 -269 74q-48 75 -48 215zM255 1069q0 -72 15 -99q16 -26 111 -26q88 0 109 22q22 23 22 108v175q0 83 -22 103q-21 20 -109 20q-85 0 -106 -19 q-20 -18 -20 -96v-188zM368 0l909 1536h243l-909 -1536h-243zM1137 274v206q0 176 62 234q63 58 263 58q209 0 277 -56q69 -56 69 -235v-208q0 -153 -56 -221q-55 -68 -298 -68q-200 0 -259 60q-58 60 -58 230zM1344 289q0 -81 17 -103t109 -22q88 0 109 22q22 23 22 108 v176q0 82 -22 102q-21 20 -109 20q-85 0 -106 -19q-20 -19 -20 -97v-187z" />
<glyph unicode="&#x26;" horiz-adv-x="1585" d="M109 476q0 204 65 299q65 96 209 103q-114 88 -114 232v37q0 207 98 306t431 99q280 0 400 -80q121 -79 121 -325v-90h-352v60q0 76 -35 102q-34 27 -139 27q-90 0 -118 -28q-28 -27 -28 -110q0 -48 17 -79t93 -100l348 -312v199h326v-187q0 -118 -13 -169 q-13 -50 -31 -90l172 -153l-186 -217l-138 127q-50 -66 -150 -105q-100 -38 -320 -38q-382 0 -519 113t-137 379zM487 517q0 -142 57 -176t237 -34q152 0 208 36l-405 356h-11q-59 -15 -73 -57q-13 -41 -13 -125z" />
<glyph unicode="'" horiz-adv-x="451" d="M80 1272v264h285v-264l-88 -264h-109z" />
<glyph unicode="(" horiz-adv-x="788" d="M669 27q-95 0 -127 53q-33 53 -33 216v675q0 150 40 195q39 46 120 46v334q-310 0 -429 -98q-120 -97 -120 -455v-793q0 -280 105 -394q104 -113 444 -113v334z" />
<glyph unicode=")" horiz-adv-x="788" d="M119 27q95 0 127 53q33 53 33 216v675q0 150 -40 195q-39 46 -120 46v334q310 0 429 -98q120 -97 120 -455v-793q0 -280 -105 -394q-104 -113 -444 -113v334z" />
<glyph unicode="*" d="M316 1182l67 178l253 -96v272h192v-272l263 96l57 -195l-253 -85l156 -212l-150 -117l-161 224l-171 -224l-156 111l161 218z" />
<glyph unicode="+" horiz-adv-x="1229" d="M96 448v236h400v400h236v-400h400v-236h-400v-400h-236v400h-400z" />
<glyph unicode="," horiz-adv-x="737" d="M177 -132q80 0 112 28q33 29 33 104h-125v352h332v-333q0 -184 -75 -246q-75 -61 -277 -61v156z" />
<glyph unicode="-" horiz-adv-x="557" d="M0 396v334h560v-334h-560z" />
<glyph unicode="." horiz-adv-x="737" d="M197 0v356h332v-356h-332z" />
<glyph unicode="/" horiz-adv-x="1305" d="M62 -232l904 1768h280l-904 -1768h-280z" />
<glyph unicode="0" d="M97 540v455q0 311 134 434q135 123 407 123h177q305 0 436 -127t131 -431v-440q0 -317 -127 -444q-126 -126 -419 -126h-197q-297 0 -420 134q-122 134 -122 422zM486 597q0 -179 40 -227t221 -48q150 0 198 41t48 225v354q0 179 -43 225q-42 47 -207 47t-211 -46 t-46 -229v-342z" />
<glyph unicode="1" d="M112 1080l551 456h480v-1536h-407v1172l-393 -356z" />
<glyph unicode="2" d="M128 0v327q0 206 54 295q55 89 227 148q103 34 306 82q162 39 201 71q39 33 39 127q0 109 -37 144q-37 36 -175 36h-65q-94 0 -128 -38q-33 -37 -33 -133v-8v-75h-389v79q0 281 137 389q138 108 476 108q336 0 469 -108q134 -107 134 -378q0 -233 -70 -319 q-69 -85 -247 -146q-87 -32 -359 -91q-93 -20 -122 -59t-29 -129h827v-322h-1216z" />
<glyph unicode="3" d="M115 466v62h389q0 -146 42 -184q43 -38 200 -38q169 0 199 48q31 49 31 141q0 84 -44 114q-43 31 -178 31h-111v296h118q128 0 162 24q35 24 35 102q0 91 -34 129q-33 39 -125 39h-83q-131 0 -163 -40q-31 -39 -31 -166h-389v61q0 277 124 372q125 95 521 95 q308 0 438 -103q131 -102 131 -315q0 -321 -255 -351q135 -17 204 -85t69 -261q0 -213 -116 -333t-509 -120q-340 0 -483 100q-142 101 -142 382z" />
<glyph unicode="4" d="M73 304v438l582 794h602v-936h134v-296h-134v-304h-389v304h-795zM395 600h473v638z" />
<glyph unicode="5" d="M134 448h389q0 -96 52 -119q53 -23 161 -23q131 0 170 35q40 35 40 177q0 155 -38 193q-38 39 -188 39h-65q-82 0 -104 -24q-21 -24 -28 -54h-353v864h1104v-296h-751v2v-307q38 68 103 94q65 27 224 27q263 0 374 -107t111 -404q0 -329 -125 -445t-490 -116 q-355 0 -471 114q-115 114 -115 350z" />
<glyph unicode="6" d="M122 590v413q0 312 127 430q128 119 490 119q363 0 489 -90q127 -89 127 -390h-389q0 101 -42 129q-42 29 -177 29q-148 0 -192 -36q-44 -35 -44 -180v-237q39 99 111 126t185 27q305 0 420 -89q116 -88 116 -354q0 -291 -131 -397q-130 -106 -465 -106q-364 0 -495 112 q-130 112 -130 494zM511 463q0 -101 38 -129q39 -28 192 -28q145 0 179 32q34 33 34 136q0 68 -34 101t-128 33h-85h-41q-98 0 -127 -34q-28 -34 -28 -111z" />
<glyph unicode="7" d="M112 1193v343h1152v-342l-501 -1194h-432l514 1193h-733z" />
<glyph unicode="8" d="M115 416q0 341 299 370q-139 33 -203 111q-64 79 -64 242q0 212 124 312q125 101 479 101q331 0 466 -94q136 -93 136 -343q0 -154 -57 -223t-198 -107q150 -23 210 -113q61 -90 61 -247q0 -267 -147 -354t-475 -87q-341 0 -486 92q-145 93 -145 340zM504 466 q0 -108 54 -134q55 -26 189 -26q117 0 174 20q58 20 58 140q0 118 -47 142t-165 24q-175 0 -219 -32q-44 -31 -44 -134zM536 1077q0 -91 40 -120t177 -29q127 0 168 31q42 32 42 132q0 85 -39 112t-171 27q-138 0 -178 -28q-39 -28 -39 -125z" />
<glyph unicode="9" d="M116 464h389q0 -102 41 -130q42 -28 178 -28q147 0 191 35q45 35 45 180v238q-40 -100 -108 -127q-68 -26 -188 -26q-306 0 -415 84q-121 92 -121 359q0 290 130 396q130 107 466 107q363 0 494 -113q131 -112 131 -493v-414q0 -312 -128 -430t-489 -118q-359 0 -488 89 q-128 89 -128 391zM517 1062q0 -71 34 -103q35 -31 170 -31h43q120 0 158 23q38 24 38 122q0 100 -39 128q-39 29 -191 29h-19q-131 0 -163 -36q-31 -36 -31 -132z" />
<glyph unicode=":" horiz-adv-x="737" d="M197 719v356h332v-356h-332zM197 0v356h332v-356h-332z" />
<glyph unicode=";" horiz-adv-x="737" d="M177 -132q80 0 112 28q33 29 33 104h-125v352h332v-333q0 -184 -75 -246q-75 -61 -277 -61v156zM197 719v356h332v-356h-332z" />
<glyph unicode="&#x3c;" horiz-adv-x="1229" d="M1126 55v261l-700 246l700 247v261l-1024 -384v-247z" />
<glyph unicode="=" horiz-adv-x="1229" d="M96 216v236h1024v-236h-1024zM96 692v236h1024v-236h-1024z" />
<glyph unicode="&#x3e;" horiz-adv-x="1229" d="M103 57v261l700 246l-700 247v261l1024 -384v-247z" />
<glyph unicode="?" horiz-adv-x="1239" d="M93 1096v65q0 225 121 308t424 83t407 -94t104 -302q0 -164 -52 -252q-51 -88 -186 -140q-110 -50 -141 -75t-31 -82v-59h-352v76q1 140 37 199t169 121q133 60 168 95q36 36 36 117q0 70 -34 96q-33 27 -126 27q-130 0 -160 -34t-32 -104v-45h-352zM397 0v356h332v-356 h-332z" />
<glyph unicode="@" horiz-adv-x="1556" d="M32 762q0 330 227 560t553 230q279 0 500 -188q222 -187 222 -452q0 -238 -153 -420q-152 -181 -363 -181q-116 0 -116 104q-98 -96 -203 -96q-144 0 -247 110q-102 111 -102 255q0 193 118 335q119 142 304 142q156 0 253 -112l19 97h194l-106 -603q-6 -39 -6 -51 q0 -29 33 -29q74 0 140 109q67 110 67 263q0 246 -153 390q-152 144 -411 144q-247 0 -406 -174q-158 -174 -158 -436q0 -269 172 -431q172 -161 436 -161q217 0 390 137h202q-229 -320 -604 -320q-339 0 -571 221q-231 222 -231 557zM598 719q0 -80 42 -134q43 -53 119 -53 q90 0 148 69q59 70 59 162q0 83 -45 134t-119 51q-87 0 -146 -70q-58 -70 -58 -159z" />
<glyph unicode="A" horiz-adv-x="1501" d="M-26 0l464 1536h621l464 -1536h-416l-79 264h-550l-75 -264h-429zM0 1552zM567 565h379l-194 665zM749 1648zM1408 0z" />
<glyph unicode="B" horiz-adv-x="1511" d="M128 0v1536h816q275 0 374 -92q100 -91 100 -305q0 -208 -81 -272q-80 -64 -181 -84q162 -17 225 -95q63 -77 63 -260q0 -263 -115 -346q-114 -82 -373 -82h-828zM538 334h314q98 0 140 33t42 128q0 88 -37 116q-37 29 -108 29h-26h-325v-306zM538 924h286q112 0 148 28 q36 29 36 116q0 75 -27 104q-26 30 -142 30h-301v-278z" />
<glyph unicode="C" horiz-adv-x="1491" d="M70 541v441q0 313 156 441q156 129 572 129q371 0 496 -103q126 -102 126 -391v-66h-422v25q0 100 -51 139q-50 40 -194 40q-163 0 -212 -54t-49 -217v-291q0 -181 50 -238q51 -56 215 -56q146 0 193 38q48 39 48 155v43h422v-88q0 -257 -127 -381q-127 -123 -417 -123 h-247q-287 0 -423 130q-136 131 -136 427zM766 0zM766 1648z" />
<glyph unicode="D" horiz-adv-x="1587" d="M0 1552zM109 0v1536h800q305 0 453 -135q149 -135 149 -441v-357q0 -322 -135 -463q-135 -140 -435 -140h-832zM519 356h350q100 0 160 57t60 220v303q0 139 -44 191q-43 53 -170 53h-356v-824zM772 1648z" />
<glyph unicode="E" horiz-adv-x="1389" d="M0 1552zM128 0v1536h1114v-334h-704v-286h659v-284h-659v-298h717v-334h-1127zM707 1648zM1090 0z" />
<glyph unicode="F" horiz-adv-x="1262" d="M115 0v1536h1082v-334h-672v-308h621v-334h-621v-560h-410z" />
<glyph unicode="G" horiz-adv-x="1552" d="M64 541v448q0 325 171 444q172 119 580 119q411 0 537 -103t126 -393h-416q0 99 -73 130q-73 32 -177 32q-200 0 -263 -53t-63 -265v-280q0 -182 61 -242t250 -60q154 0 209 52q56 52 56 218h-288v284h704v-284q0 -369 -129 -487q-129 -117 -545 -117q-391 0 -566 109 q-174 110 -174 448zM765 1648zM799 0z" />
<glyph unicode="H" horiz-adv-x="1614" d="M128 0v1536h410v-580h534v580h410v-1536h-410v600h-534v-600h-410z" />
<glyph unicode="I" horiz-adv-x="664" d="M0 1552zM128 0v1536h410v-1536h-410zM360 1648zM452 0z" />
<glyph unicode="J" horiz-adv-x="1233" d="M45 378v119v143h390v-138q0 -97 25 -130q26 -32 111 -32q87 0 108 31q22 31 22 100v1065h410v-1055q0 -286 -97 -392q-97 -105 -448 -105h-70q-451 0 -451 394z" />
<glyph unicode="K" horiz-adv-x="1540" d="M128 0v1536h410v-580h112l403 580h493l-544 -757l589 -779h-505l-436 600h-112v-600h-410zM762 0z" />
<glyph unicode="L" horiz-adv-x="1198" d="M0 1552zM122 0v1536h410v-1180h640v-356h-1050zM348 1648zM614 0z" />
<glyph unicode="M" horiz-adv-x="2148" d="M128 0v1536h646l298 -966l279 966h665v-1536h-410v1092l-358 -1092h-352l-358 1092v-1092h-410z" />
<glyph unicode="N" horiz-adv-x="1784" d="M0 1552zM128 0v1536h691l445 -1164v1164h410v-1536h-697l-439 1152v-1152h-410zM889 0zM949 1648z" />
<glyph unicode="O" horiz-adv-x="1556" d="M70 529v463q0 288 154 424q155 136 586 136q352 0 513 -133t161 -443v-427q0 -321 -171 -443t-558 -122q-332 0 -509 122q-176 122 -176 423zM492 945l2 -346q0 -151 49 -205q50 -54 238 -54q165 0 223 46q58 47 58 205v359q0 151 -56 198q-55 48 -222 48 q-181 0 -237 -48q-55 -48 -55 -203zM805 1648z" />
<glyph unicode="P" horiz-adv-x="1456" d="M122 0v1536h776q289 0 401 -139q113 -138 113 -446q0 -337 -112 -448q-111 -111 -421 -111h-347v-392h-410zM532 748h277q118 0 149 36q32 36 32 185q0 132 -37 171q-37 40 -126 40h-295v-432z" />
<glyph unicode="Q" horiz-adv-x="1630" d="M102 529v475q2 332 178 440q177 108 562 108q360 0 517 -133t157 -442v-425q0 -92 -26 -214l170 -114l-166 -228l-155 123q-91 -79 -213 -107q-121 -28 -338 -28q-341 0 -514 123q-172 123 -172 422zM524 602q0 -161 50 -212q51 -50 232 -50q134 0 183 23l-273 177 l160 228l218 -150v332q0 152 -59 199t-219 47q-181 0 -237 -48q-55 -48 -55 -203v-343z" />
<glyph unicode="R" horiz-adv-x="1520" d="M0 1552zM115 0v1536h816q274 0 390 -104q116 -103 116 -356q0 -270 -59 -352t-267 -137q313 -21 313 -280v-307h-410v223q0 185 -183 185h-306v-408h-410zM525 764h320q110 0 140 38q30 39 30 185q0 93 -24 143t-129 50h-337v-416zM766 0zM776 1648z" />
<glyph unicode="S" horiz-adv-x="1466" d="M77 496h390q0 -108 48 -143t214 -35q165 0 207 30q43 30 43 121q0 92 -37 114t-185 25q-412 9 -546 100q-134 92 -134 365q0 299 144 389t503 90q376 0 494 -93t123 -340v-63h-390q-5 101 -43 131q-37 31 -175 31q-156 0 -201 -28q-45 -27 -45 -113q0 -68 32 -99 q33 -30 151 -36q244 -12 426 -36q183 -24 248 -163q45 -97 45 -295q0 -247 -130 -356q-129 -108 -531 -108q-448 0 -550 134q-101 134 -101 378zM728 0zM764 1648z" />
<glyph unicode="T" horiz-adv-x="1219" d="M0 1180v356h1210v-356h-400v-1180h-410v1180h-400zM0 1552zM614 0zM638 1648z" />
<glyph unicode="U" horiz-adv-x="1579" d="M0 1552zM128 499v1037h410v-1004q0 -126 50 -159t209 -33q150 0 196 38q47 38 47 149v1009h410v-1019q0 -304 -142 -419q-141 -114 -488 -114q-390 0 -541 89q-151 90 -151 426zM794 1648zM887 0z" />
<glyph unicode="V" horiz-adv-x="1456" d="M-32 1536h416l352 -1188l346 1188h422l-448 -1536h-640z" />
<glyph unicode="W" horiz-adv-x="2261" d="M-16 1536h416l234 -1194l294 1194h429l285 -1194l233 1194h410l-336 -1536h-589l-224 972l-227 -972h-589z" />
<glyph unicode="X" horiz-adv-x="1499" d="M-32 0l457 792l-431 744h480l278 -564l279 564h473l-425 -744l457 -792h-480l-303 594l-305 -594h-480z" />
<glyph unicode="Y" horiz-adv-x="1450" d="M-48 1536h467l304 -600l286 600h473l-560 -996v-540h-410v540zM0 1552zM705 1648z" />
<glyph unicode="Z" horiz-adv-x="1350" d="M0 1552zM45 0v348l723 832h-678v356h1203v-342l-736 -838h736v-356h-1248zM729 1648z" />
<glyph unicode="[" horiz-adv-x="788" d="M669 27h-160v1185h160v334h-549v-1853h549v334z" />
<glyph unicode="\" horiz-adv-x="1311" d="M62 1536h280l904 -1760h-280z" />
<glyph unicode="]" horiz-adv-x="788" d="M119 27h160v1185h-160v334h549v-1853h-549v334z" />
<glyph unicode="^" horiz-adv-x="1229" d="M103 511l384 1031h247l384 -1031h-272l-236 697l-235 -697h-272z" />
<glyph unicode="_" horiz-adv-x="1024" d="M0 -154h1024v-103h-1024v103z" />
<glyph unicode="`" horiz-adv-x="827" d="M160 1309l101 227l427 -239l-56 -129zM420 1168z" />
<glyph unicode="a" horiz-adv-x="1247" d="M83 316q0 175 90 259q91 84 314 84q132 0 196 -28q64 -27 104 -100v205q0 133 -154 133q-76 0 -115 -24t-39 -98h-352q0 175 90 255q90 81 305 81h149q272 0 370 -85t98 -325v-673h-352v133q-41 -86 -118 -115t-209 -29q-202 0 -290 78q-87 79 -87 249zM435 325 q0 -110 155 -110q123 0 160 26q37 27 37 102q0 67 -47 84q-46 18 -143 18q-99 0 -131 -24q-31 -24 -31 -96zM623 1163zM1048 0z" />
<glyph unicode="b" horiz-adv-x="1255" d="M110 0v1536h352v-629q82 176 318 176q219 0 310 -108q92 -108 92 -342v-247q0 -397 -391 -397q-142 0 -210 42t-119 166v-197h-352zM462 508q0 -154 37 -202q38 -47 156 -47q114 0 144 55q31 56 31 235q0 148 -36 206q-35 58 -142 58q-109 0 -150 -51q-40 -51 -40 -254z " />
<glyph unicode="c" horiz-adv-x="1141" d="M66 532q0 320 113 435q113 116 419 116q287 0 397 -91q111 -90 111 -325h-352q0 90 -32 118t-133 28q-106 0 -139 -55q-32 -54 -32 -246q0 -167 30 -210q31 -43 135 -43q107 0 139 30q32 31 32 148h352q0 -287 -110 -368q-109 -80 -390 -80q-330 0 -435 111t-105 432z M598 0zM631 1163z" />
<glyph unicode="d" horiz-adv-x="1253" d="M66 378v253q0 237 91 344q92 108 317 108q246 0 312 -176v629h352v-1536h-352v165q-56 -95 -123 -136q-66 -40 -184 -40q-413 0 -413 389zM418 553q0 -168 23 -231t148 -63q113 0 155 52q42 53 42 244q0 157 -42 207q-42 51 -143 51q-106 0 -145 -39q-38 -39 -38 -221z " />
<glyph unicode="e" horiz-adv-x="1176" d="M61 532q0 316 108 433q109 118 437 118q267 0 389 -102q122 -101 122 -507h-704q0 -147 36 -193q37 -46 144 -46q92 0 130 20q47 26 47 102h347q0 -212 -123 -290t-389 -78q-345 0 -445 131q-99 132 -99 412zM413 668h352q0 107 -40 138t-135 31q-105 0 -141 -34 t-36 -135zM618 1163zM709 0z" />
<glyph unicode="f" horiz-adv-x="805" d="M32 814v258h144v114q0 197 107 273q107 77 397 77h72v-270q-13 2 -36 7q-22 5 -34 5h-21q-72 0 -103 -27q-30 -27 -30 -142v-37h240v-258h-240v-814h-352v814h-144z" />
<glyph unicode="g" horiz-adv-x="1260" d="M72 533q0 307 83 428q84 122 330 122q134 0 200 -41q67 -41 107 -140v170h352v-986q0 -330 -101 -446t-431 -116q-254 0 -368 65q-113 65 -124 319h336q0 -86 39 -108t120 -22q122 0 149 40q28 41 28 204v163q-45 -104 -118 -145q-73 -40 -191 -40q-251 0 -341 147 q-70 115 -70 386zM424 539q0 -163 32 -216t151 -53q107 0 146 49q39 50 39 201q0 178 -31 235q-31 58 -154 58q-106 0 -145 -39q-38 -39 -38 -170v-65zM595 1163z" />
<glyph unicode="h" horiz-adv-x="1268" d="M116 0v1536h352v-661q45 106 101 148q78 60 232 60q191 0 273 -86q82 -85 82 -274v-723h-352v629q0 106 -28 145q-27 39 -114 39q-101 0 -148 -47q-46 -47 -46 -185v-581h-352z" />
<glyph unicode="i" horiz-adv-x="526" d="M88 0v1072h352v-1072h-352zM88 1264v270h352v-270h-352zM338 0z" />
<glyph unicode="j" horiz-adv-x="496" d="M-38 -79q52 0 75 22q24 22 24 99v1030h352v-1081q0 -174 -80 -249q-79 -75 -258 -75q-70 0 -113 12v242zM61 1264v270h352v-270h-352z" />
<glyph unicode="k" horiz-adv-x="1212" d="M110 0v1536h352v-867h61l210 403h385l-298 -514l370 -558h-413l-254 435h-61v-435h-352zM570 0z" />
<glyph unicode="l" horiz-adv-x="592" d="M121 0v1536h352v-1536h-352zM305 1584zM307 0z" />
<glyph unicode="m" horiz-adv-x="1903" d="M121 0v1072h341v-165q80 176 312 176q161 0 234 -50q73 -49 99 -174q39 224 305 224q189 0 281 -89q92 -88 92 -262v-732h-352v635q0 106 -33 142t-108 36q-163 0 -163 -213v-600h-352v667q0 146 -127 146q-104 0 -141 -47q-36 -46 -36 -159v-607h-352z" />
<glyph unicode="n" horiz-adv-x="1268" d="M116 0v1072h352v-213q69 224 325 224q204 0 283 -89q80 -88 80 -275v-719h-352v610q0 116 -32 159q-31 44 -118 44q-93 0 -140 -51q-46 -50 -46 -174v-588h-352zM648 0zM701 1163z" />
<glyph unicode="o" horiz-adv-x="1214" d="M72 536q0 335 103 441t441 106q342 0 435 -113t93 -447q0 -332 -110 -433t-426 -101q-331 0 -434 116q-102 116 -102 431zM424 534q0 -192 38 -234q38 -41 155 -41q116 0 145 49q30 50 30 228q0 179 -32 228q-31 49 -143 49q-129 0 -161 -50t-32 -229zM616 1163z" />
<glyph unicode="p" horiz-adv-x="1266" d="M110 -464v1536h352v-149q50 90 117 125t198 35q218 0 311 -100q94 -100 94 -304v-241q0 -243 -94 -346t-303 -103q-248 0 -323 160v-613h-352zM462 514q0 -150 38 -203q39 -52 133 -52q132 0 164 58q33 59 33 228q0 168 -36 218t-154 50q-114 0 -146 -54 q-32 -53 -32 -245z" />
<glyph unicode="q" horiz-adv-x="1268" d="M77 438v241q0 215 100 309q100 95 305 95q130 0 197 -35t118 -125v149h352v-1536h-352v613q-76 -160 -323 -160q-201 0 -299 100q-98 101 -98 349zM429 545q0 -175 36 -231q37 -55 161 -55q93 0 132 52q39 53 39 203q0 192 -33 245q-32 54 -145 54q-119 0 -155 -50 q-35 -50 -35 -218z" />
<glyph unicode="r" horiz-adv-x="1026" d="M110 0v1072h341v-170q70 181 291 181q142 0 203 -90t61 -291v-99h-319v73q0 75 -21 106t-73 31q-131 0 -131 -187v-626h-352zM285 0zM541 1163z" />
<glyph unicode="s" horiz-adv-x="1184" d="M66 341h352q0 -80 40 -103q41 -23 142 -23q110 0 140 21t30 71q0 64 -29 85q-28 21 -122 21q-340 0 -447 65q-106 65 -106 254q0 185 90 268t389 83h41q268 0 374 -62q107 -62 107 -258h-336q-11 51 -38 72q-26 22 -99 22h-66q-66 0 -91 -25q-24 -24 -24 -62 q0 -51 32 -71t141 -20q95 0 240 -15q145 -14 214 -78q77 -70 77 -239q0 -206 -134 -282t-428 -76q-285 0 -387 78t-102 274zM583 1163zM592 0z" />
<glyph unicode="t" horiz-adv-x="993" d="M28 814v258h132v224h352v-224h400v-258h-400v-463q0 -64 17 -84q18 -20 68 -20q41 0 61 27q21 28 21 163h281v-69q0 -224 -79 -302q-79 -77 -312 -77q-234 0 -322 70q-87 70 -87 243v512h-132zM566 0z" />
<glyph unicode="u" horiz-adv-x="1260" d="M0 1083zM105 353v719h352v-632q0 -107 29 -144q30 -37 113 -37q91 0 142 47q52 48 52 121v645h352v-1072h-352v197q-65 -208 -312 -208q-376 0 -376 364zM613 1163zM1031 0z" />
<glyph unicode="v" horiz-adv-x="1085" d="M-16 1072h369l204 -846l190 846h363l-272 -1072h-550z" />
<glyph unicode="w" horiz-adv-x="1716" d="M0 1072h336l125 -846l195 846h413l189 -858l137 858h330l-192 -1072h-506l-162 787l-167 -787h-506z" />
<glyph unicode="x" horiz-adv-x="1116" d="M-11 0l321 570l-277 502h407l128 -297l134 297h407l-285 -502l313 -570h-413l-157 352l-154 -352h-424z" />
<glyph unicode="y" horiz-adv-x="1092" d="M-17 1072h369l210 -877l183 877h358l-278 -1191q-49 -210 -154 -284q-105 -73 -293 -73q-88 0 -131 8v246q18 -8 57 -8q79 0 129 46q51 46 62 186h-193zM0 1083zM530 1163z" />
<glyph unicode="z" horiz-adv-x="1016" d="M0 1083zM44 0v289l504 537h-465v246h889v-276l-521 -550h521v-246h-928zM566 1163z" />
<glyph unicode="{" horiz-adv-x="788" d="M48 498v270q160 0 160 101v405q0 120 72 199t167 79h289v-270h-80q-54 0 -74 -26t-20 -84v-315q0 -83 -26 -137q-25 -53 -134 -95q87 -17 123 -69q37 -52 37 -189v-301q0 -60 23 -80t79 -20h72v-270h-287q-85 0 -163 75t-78 207v408q0 112 -160 112z" />
<glyph unicode="|" horiz-adv-x="1229" d="M496 -512v2048h236v-2048h-236z" />
<glyph unicode="}" horiz-adv-x="788" d="M48 -34h71q56 0 79 20q24 20 24 80v301q0 137 36 189q36 53 124 69q-115 54 -138 105q-22 52 -22 130v311q0 59 -21 85q-20 26 -74 26h-79v270h288q85 0 162 -75q78 -74 78 -201v-407q0 -101 160 -101v-270q-160 0 -160 -113v-407q0 -132 -79 -207q-78 -75 -163 -75h-286 v270z" />
<glyph unicode="~" horiz-adv-x="1229" d="M103 392q0 190 66 309q67 119 205 119q66 0 126 -41q61 -40 137 -95q60 -43 121 -84t101 -41q69 0 69 165h199q0 -184 -67 -298t-194 -114q-54 0 -126 43q-71 44 -140 89t-137 87q-67 42 -104 42q-27 0 -38 -35q-11 -34 -19 -146h-199z" />
<glyph unicode="&#xa1;" horiz-adv-x="715" d="M551 -461h-384l16 930h352zM525 1075v-356h-332v356h332z" />
<glyph unicode="&#xa2;" d="M213 733q0 296 82 413q83 117 356 126v160h158v-160q214 0 314 -80q101 -80 105 -336h-328q0 147 -165 147q-104 0 -134 -46q-29 -45 -29 -234q0 -201 24 -248q25 -46 132 -46q100 0 136 37t36 142h328q0 -266 -82 -353q-81 -87 -337 -95v-176h-158v176q-281 13 -360 137 q-78 124 -78 436z" />
<glyph unicode="&#xa3;" d="M98 568v296h182v212q0 267 123 371q124 105 470 105q342 0 454 -96t112 -379v-53h-401q0 109 -32 147t-134 38q-109 0 -147 -35t-38 -140v-170h384v-296h-384q0 -111 -24 -159q-23 -47 -85 -82h861v-7v-327v7h-1293v327q75 6 104 44q30 39 30 143v54h-182z" />
<glyph unicode="&#xa4;" d="M200 354l159 166q-71 110 -71 239q0 128 69 239l-157 163l145 145l161 -168q98 58 215 58q125 0 232 -62l169 172l145 -145l-163 -168q68 -102 68 -223q0 -134 -70 -245l165 -171l-145 -145l-160 166q-101 -63 -218 -63q-128 0 -238 65l-161 -168zM532 754q0 -83 57 -141 q58 -57 141 -57q82 0 140 57q58 58 58 141q0 82 -58 140t-140 58q-83 0 -141 -58q-57 -58 -57 -140z" />
<glyph unicode="&#xa5;" d="M16 1536h444l274 -600l279 600h450l-214 -395h182v-269h-331l-89 -160h420v-269h-496v-443h-407v443h-496v269h422l-88 160h-334v269h194z" />
<glyph unicode="&#xa6;" horiz-adv-x="1229" d="M496 -362v725h236v-725h-236zM496 667v720h236v-720h-236z" />
<glyph unicode="&#xa7;" d="M52 548q0 123 28 195t115 101q-57 38 -80 109q-22 71 -22 179q0 237 133 325q133 89 529 89q331 0 458 -89q127 -88 127 -322v-85h-378q0 97 -30 138t-210 41q-147 0 -183 -25q-36 -24 -36 -74q0 -55 19 -77q19 -21 72 -32l509 -93q187 -32 245 -108q59 -76 59 -270 q0 -145 -27 -202q-26 -56 -95 -96q79 -28 103 -98t24 -217q0 -240 -147 -326q-147 -85 -518 -85q-82 0 -191 4q-108 4 -175 16q-171 34 -230 158q-58 124 -58 334h378q5 -122 47 -159q43 -36 206 -36q168 0 223 23q55 24 55 98q0 66 -28 92t-117 42l-512 91q-167 28 -230 96 q-63 69 -63 263zM399 595q0 -77 21 -105q22 -27 77 -38l402 -76q33 -6 62 -6q99 0 99 158q0 66 -28 96q-27 31 -126 50l-313 62q-67 13 -88 13q-106 0 -106 -154z" />
<glyph unicode="&#xa8;" horiz-adv-x="961" d="M160 1232v211h223v-211h-223zM487 1168zM591 1232v211h223v-211h-223z" />
<glyph unicode="&#xa9;" horiz-adv-x="1638" d="M32 775q0 324 228 550q228 227 556 227q319 0 545 -228t226 -550q0 -319 -226 -548t-545 -229q-325 0 -555 227q-229 228 -229 551zM211 774q0 -257 177 -428q178 -170 426 -170q236 0 415 173t179 435q0 248 -180 418q-179 171 -409 171q-252 0 -430 -170t-178 -429z M403 772q0 213 119 344q120 132 307 132q154 0 257 -78q104 -78 130 -226h-183q-11 68 -68 111q-57 44 -133 44q-110 0 -180 -89q-70 -88 -70 -234q0 -129 72 -226q73 -97 186 -97q74 0 131 48q58 48 58 123h183q-16 -152 -121 -236t-249 -84q-187 0 -313 130 q-126 131 -126 338z" />
<glyph unicode="&#xaa;" horiz-adv-x="983" d="M158 1086q0 108 50 155t191 47q78 0 111 -14t64 -55v91q0 76 -17 93t-72 17q-90 0 -90 -69h-213q0 119 61 160q62 41 223 41q181 0 251 -43q70 -42 70 -166v-452h-213v105q-44 -116 -190 -116q-226 0 -226 206zM371 1083q0 -35 24 -45q25 -10 89 -10q90 0 90 57 q0 44 -25 57q-25 14 -84 14q-53 0 -74 -14q-20 -13 -20 -59z" />
<glyph unicode="&#xab;" horiz-adv-x="1139" d="M1044 190l-201 374l201 346l-218 134l-278 -480l263 -496zM580 190l-201 374l201 346l-218 134l-278 -480l263 -496z" />
<glyph unicode="&#xac;" horiz-adv-x="1229" d="M96 688v236h1024v-604h-236v368h-788z" />
<glyph unicode="&#xad;" horiz-adv-x="557" d="M0 396v334h560v-334h-560z" />
<glyph unicode="&#xae;" horiz-adv-x="1638" d="M32 775q0 324 228 550q228 227 556 227q319 0 545 -228t226 -550q0 -319 -226 -548t-545 -229q-325 0 -555 227q-229 228 -229 551zM211 774q0 -255 180 -427q180 -171 423 -171q236 0 415 173t179 435q0 250 -180 419q-179 170 -409 170q-252 0 -430 -170t-178 -429z M483 336v848h423q169 0 239 -60q71 -59 71 -196q0 -221 -232 -229l209 -363h-202l-190 352h-139v-352h-179zM662 825h240q135 0 135 117q0 57 -36 81t-129 24h-210v-222z" />
<glyph unicode="&#xaf;" horiz-adv-x="950" d="M160 1248v191h640v-191h-640zM475 1168z" />
<glyph unicode="&#x2c9;" horiz-adv-x="950" d="M160 1248v191h640v-191h-640zM475 1168z" />
<glyph unicode="&#xb0;" horiz-adv-x="819" d="M96 1241q0 128 90 219q91 92 220 92q132 0 221 -92q89 -91 89 -222q0 -125 -91 -217t-217 -92q-128 0 -220 91t-92 221zM236 1240q0 -71 50 -120q51 -48 123 -48q66 0 116 48q51 49 51 118q0 70 -52 120q-51 51 -122 51q-70 0 -118 -51q-48 -50 -48 -118z" />
<glyph unicode="&#xb1;" horiz-adv-x="1229" d="M96 12v236h1036v-236h-1036zM96 600v236h400v240h236v-240h400v-236h-400v-240h-236v240h-400z" />
<glyph unicode="&#xb2;" horiz-adv-x="885" d="M48 624v199q0 126 42 183q42 58 162 87q123 26 230 53q58 13 77 31q19 19 19 73q0 67 -24 88t-101 21h-39q-77 0 -95 -25q-17 -25 -17 -93v-41h-254v41q0 164 82 237q82 74 316 74q202 0 294 -58q92 -57 92 -241q0 -145 -62 -204q-61 -59 -315 -108q-93 -17 -121 -35 t-32 -89h534v-193h-788z" />
<glyph unicode="&#xb3;" horiz-adv-x="885" d="M36 903v47h254q0 -95 28 -119t128 -24q88 0 118 20q30 21 30 97q0 59 -39 70q-38 12 -120 12h-63v177h71q55 0 97 6t42 72q0 63 -24 80q-24 18 -113 18q-65 0 -85 -4q-55 -13 -55 -59q0 -21 -3 -64h-254v26q1 180 81 237q81 57 322 57q210 0 297 -58q88 -57 88 -195 q0 -98 -44 -151q-43 -53 -158 -53q121 -11 167 -56q47 -44 47 -158q0 -136 -89 -202q-89 -65 -320 -65q-240 0 -322 65q-81 65 -81 224z" />
<glyph unicode="&#xb4;" horiz-adv-x="827" d="M160 1297l427 239l101 -227l-472 -141zM426 1168z" />
<glyph unicode="&#xb5;" horiz-adv-x="1260" d="M110 -464v1536h352v-632q0 -112 30 -147q30 -34 98 -34q84 0 138 45t54 111v657h352v-1072h-352v195q-58 -206 -320 -206v-453h-352z" />
<glyph unicode="&#xb6;" d="M0 955q0 313 117 447q118 134 399 134h952v-2000h-248v1703h-156v-1703h-248v865h-284q-325 0 -429 114q-103 115 -103 440zM381 966q0 -178 39 -223t202 -45h194v541h-225q-131 0 -171 -46q-39 -46 -39 -227z" />
<glyph unicode="&#xb7;" horiz-adv-x="737" d="M202 384v357h331v-357h-331z" />
<glyph unicode="&#x2219;" horiz-adv-x="737" d="M202 384v357h331v-357h-331z" />
<glyph unicode="&#xb8;" horiz-adv-x="659" d="M160 -248l261 166l91 -168l-296 -104zM344 0z" />
<glyph unicode="&#xb9;" horiz-adv-x="885" d="M16 1276l372 276h310v-928h-266v711l-265 -215z" />
<glyph unicode="&#xba;" horiz-adv-x="983" d="M176 1216v55q0 153 59 217q60 64 266 64h35q165 0 225 -64q60 -63 60 -256v-46q0 -174 -61 -240t-262 -66h-43q-154 0 -217 59q-62 60 -62 277zM389 1215q0 -109 20 -146q20 -36 90 -36q60 0 84 30q25 30 25 153q0 94 -16 138q-16 45 -88 45q-75 0 -95 -36t-20 -148z" />
<glyph unicode="&#xbb;" horiz-adv-x="1139" d="M80 190l201 374l-201 346l218 134l278 -480l-263 -496zM544 190l201 374l-201 346l218 134l278 -480l-263 -496z" />
<glyph unicode="&#xbc;" horiz-adv-x="2212" d="M-84 1264l372 276h310v-928h-266v711l-265 -215zM469 0l909 1536h243l-909 -1536h-243zM1228 185v263l391 477h393v-563h83v-177h-83v-179h-254v179h-530zM1438 362h320v384z" />
<glyph unicode="&#xbd;" horiz-adv-x="2212" d="M-80 1264l372 276h310v-928h-266v711l-265 -215zM473 0l909 1536h243l-909 -1536h-243zM1342 6v199q0 126 42 183q42 58 162 87q123 26 230 53q58 13 77 31q19 19 19 73q0 67 -24 88t-101 21h-39q-77 0 -95 -25q-17 -25 -17 -93v-41h-254v41q0 164 82 237q82 74 316 74 q202 0 294 -58q92 -57 92 -241q0 -145 -62 -204q-61 -59 -315 -108q-93 -17 -121 -35t-32 -89h534v-193h-788z" />
<glyph unicode="&#xbe;" horiz-adv-x="2212" d="M30 903v47h254q0 -95 28 -119t128 -24q88 0 118 20q30 21 30 97q0 59 -39 70q-38 12 -120 12h-63v177h71q55 0 97 6t42 72q0 63 -24 80q-24 18 -113 18q-65 0 -85 -4q-55 -13 -55 -59q0 -21 -3 -64h-254v26q1 180 81 237q81 57 322 57q210 0 297 -58q88 -57 88 -195 q0 -98 -44 -151q-43 -53 -158 -53q121 -11 167 -56q47 -44 47 -158q0 -136 -89 -202q-89 -65 -320 -65q-240 0 -322 65q-81 65 -81 224zM586 0l909 1536h243l-909 -1536h-243zM1304 185v263l391 477h393v-563h83v-177h-83v-179h-254v179h-530zM1514 362h320v384z" />
<glyph unicode="&#xbf;" horiz-adv-x="1239" d="M1148 -21v-65q0 -225 -121 -308t-424 -83t-407 94t-104 302q0 164 52 252q51 88 186 140q110 50 141 75t31 82v59h352v-76q-1 -140 -37 -199t-169 -121q-133 -60 -168 -95q-36 -36 -36 -117q0 -70 34 -96q33 -27 126 -27q130 0 160 34t32 104v45h352zM844 1075v-356h-332 v356h332z" />
<glyph unicode="&#xc0;" horiz-adv-x="1501" d="M-26 0l464 1536h621l464 -1536h-416l-79 264h-550l-75 -264h-429zM0 1552zM567 565h379l-194 665zM749 1648zM1408 0zM489 1789l101 227l427 -239l-56 -129zM749 1648z" />
<glyph unicode="&#xc1;" horiz-adv-x="1501" d="M-26 0l464 1536h621l464 -1536h-416l-79 264h-550l-75 -264h-429zM0 1552zM567 565h379l-194 665zM749 1648zM1408 0zM483 1777l427 239l101 -227l-472 -141zM749 1648z" />
<glyph unicode="&#xc2;" horiz-adv-x="1501" d="M-26 0l464 1536h621l464 -1536h-416l-79 264h-550l-75 -264h-429zM0 1552zM567 565h379l-194 665zM749 1648zM1408 0zM367 1763l368 221l368 -221l-52 -115l-316 127l-316 -127zM749 1648z" />
<glyph unicode="&#xc3;" horiz-adv-x="1501" d="M-26 0l464 1536h621l464 -1536h-416l-79 264h-550l-75 -264h-429zM0 1552zM567 565h379l-194 665zM749 1648zM1408 0zM266 1823q114 198 268 198q83 0 191 -71q109 -71 164 -71q34 0 61 34q28 35 45 62l167 -82q-102 -205 -251 -205q-95 0 -209 71q-113 71 -146 71 q-68 0 -123 -96zM749 1648z" />
<glyph unicode="&#xc4;" horiz-adv-x="1501" d="M-26 0l464 1536h621l464 -1536h-416l-79 264h-550l-75 -264h-429zM0 1552zM567 565h379l-194 665zM749 1648zM1408 0zM422 1712v211h223v-211h-223zM749 1648zM853 1712v211h223v-211h-223z" />
<glyph unicode="&#xc5;" horiz-adv-x="1501" d="M-26 0l464 1536h621l464 -1536h-416l-79 264h-550l-75 -264h-429zM0 1552zM567 565h379l-194 665zM749 1648zM1408 0zM568 1827q0 83 57 141t139 58q83 0 141 -58q59 -58 59 -141q0 -81 -58 -138q-57 -57 -135 -57q-85 0 -144 57t-59 138zM676 1830q0 -39 26 -66 q26 -26 64 -26q35 0 62 26q28 27 28 66q0 35 -28 62q-27 28 -62 28q-38 0 -64 -28q-26 -27 -26 -62zM749 1648z" />
<glyph unicode="&#xc6;" horiz-adv-x="2200" d="M-51 0l608 1536h1558v-334h-704v-286h646v-284h-646v-298h704v-334h-1094v272h-527l-104 -272h-441zM604 556h417v646h-170z" />
<glyph unicode="&#xc7;" horiz-adv-x="1491" d="M70 541v441q0 313 156 441q156 129 572 129q371 0 496 -103q126 -102 126 -391v-66h-422v25q0 100 -51 139q-50 40 -194 40q-163 0 -212 -54t-49 -217v-291q0 -181 50 -238q51 -56 215 -56q146 0 193 38q48 39 48 155v43h422v-88q0 -257 -127 -381q-127 -123 -417 -123 h-247q-287 0 -423 130q-136 131 -136 427zM766 0zM766 1648zM582 -248l261 166l91 -168l-296 -104zM766 0z" />
<glyph unicode="&#xc8;" horiz-adv-x="1389" d="M0 1552zM128 0v1536h1114v-334h-704v-286h659v-284h-659v-298h717v-334h-1127zM707 1648zM1090 0zM447 1789l101 227l427 -239l-56 -129zM707 1648z" />
<glyph unicode="&#xc9;" horiz-adv-x="1389" d="M0 1552zM128 0v1536h1114v-334h-704v-286h659v-284h-659v-298h717v-334h-1127zM707 1648zM1090 0zM441 1777l427 239l101 -227l-472 -141zM707 1648z" />
<glyph unicode="&#xca;" horiz-adv-x="1389" d="M0 1552zM128 0v1536h1114v-334h-704v-286h659v-284h-659v-298h717v-334h-1127zM707 1648zM1090 0zM325 1763l368 221l368 -221l-52 -115l-316 127l-316 -127zM707 1648z" />
<glyph unicode="&#xcb;" horiz-adv-x="1389" d="M0 1552zM128 0v1536h1114v-334h-704v-286h659v-284h-659v-298h717v-334h-1127zM707 1648zM1090 0zM380 1712v211h223v-211h-223zM707 1648zM811 1712v211h223v-211h-223z" />
<glyph unicode="&#xcc;" horiz-adv-x="664" d="M0 1552zM128 0v1536h410v-1536h-410zM360 1648zM452 0zM100 1789l101 227l427 -239l-56 -129zM360 1648z" />
<glyph unicode="&#xcd;" horiz-adv-x="664" d="M0 1552zM128 0v1536h410v-1536h-410zM360 1648zM452 0zM94 1777l427 239l101 -227l-472 -141zM360 1648z" />
<glyph unicode="&#xce;" horiz-adv-x="664" d="M0 1552zM128 0v1536h410v-1536h-410zM360 1648zM452 0zM-22 1763l368 221l368 -221l-52 -115l-316 127l-316 -127zM360 1648z" />
<glyph unicode="&#xcf;" horiz-adv-x="664" d="M0 1552zM128 0v1536h410v-1536h-410zM360 1648zM452 0zM33 1712v211h223v-211h-223zM360 1648zM464 1712v211h223v-211h-223z" />
<glyph unicode="&#xd0;" horiz-adv-x="1587" d="M-64 640v284h173v612h800q317 0 459 -140q143 -139 143 -436v-357q0 -311 -129 -457q-128 -146 -441 -146h-832v640h-173zM519 356h350q110 0 165 60q55 61 55 217v303q-2 130 -42 187t-172 57h-356v-256h288v-284h-288v-284z" />
<glyph unicode="&#xd1;" horiz-adv-x="1784" d="M0 1552zM128 0v1536h691l445 -1164v1164h410v-1536h-697l-439 1152v-1152h-410zM889 0zM949 1648zM466 1823q114 198 268 198q83 0 191 -71q109 -71 164 -71q34 0 61 34q28 35 45 62l167 -82q-102 -205 -251 -205q-95 0 -209 71q-113 71 -146 71q-68 0 -123 -96z M949 1648z" />
<glyph unicode="&#xd2;" horiz-adv-x="1556" d="M70 529v463q0 288 154 424q155 136 586 136q352 0 513 -133t161 -443v-427q0 -321 -171 -443t-558 -122q-332 0 -509 122q-176 122 -176 423zM492 945l2 -346q0 -151 49 -205q50 -54 238 -54q165 0 223 46q58 47 58 205v359q0 151 -56 198q-55 48 -222 48 q-181 0 -237 -48q-55 -48 -55 -203zM805 1648zM545 1789l101 227l427 -239l-56 -129zM805 1648z" />
<glyph unicode="&#xd3;" horiz-adv-x="1556" d="M70 529v463q0 288 154 424q155 136 586 136q352 0 513 -133t161 -443v-427q0 -321 -171 -443t-558 -122q-332 0 -509 122q-176 122 -176 423zM492 945l2 -346q0 -151 49 -205q50 -54 238 -54q165 0 223 46q58 47 58 205v359q0 151 -56 198q-55 48 -222 48 q-181 0 -237 -48q-55 -48 -55 -203zM805 1648zM539 1777l427 239l101 -227l-472 -141zM805 1648z" />
<glyph unicode="&#xd4;" horiz-adv-x="1556" d="M70 529v463q0 288 154 424q155 136 586 136q352 0 513 -133t161 -443v-427q0 -321 -171 -443t-558 -122q-332 0 -509 122q-176 122 -176 423zM492 945l2 -346q0 -151 49 -205q50 -54 238 -54q165 0 223 46q58 47 58 205v359q0 151 -56 198q-55 48 -222 48 q-181 0 -237 -48q-55 -48 -55 -203zM805 1648zM423 1763l368 221l368 -221l-52 -115l-316 127l-316 -127zM805 1648z" />
<glyph unicode="&#xd5;" horiz-adv-x="1556" d="M70 529v463q0 288 154 424q155 136 586 136q352 0 513 -133t161 -443v-427q0 -321 -171 -443t-558 -122q-332 0 -509 122q-176 122 -176 423zM492 945l2 -346q0 -151 49 -205q50 -54 238 -54q165 0 223 46q58 47 58 205v359q0 151 -56 198q-55 48 -222 48 q-181 0 -237 -48q-55 -48 -55 -203zM805 1648zM322 1823q114 198 268 198q83 0 191 -71q109 -71 164 -71q34 0 61 34q28 35 45 62l167 -82q-102 -205 -251 -205q-95 0 -209 71q-113 71 -146 71q-68 0 -123 -96zM805 1648z" />
<glyph unicode="&#xd6;" horiz-adv-x="1556" d="M70 529v463q0 288 154 424q155 136 586 136q352 0 513 -133t161 -443v-427q0 -321 -171 -443t-558 -122q-332 0 -509 122q-176 122 -176 423zM492 945l2 -346q0 -151 49 -205q50 -54 238 -54q165 0 223 46q58 47 58 205v359q0 151 -56 198q-55 48 -222 48 q-181 0 -237 -48q-55 -48 -55 -203zM805 1648zM478 1712v211h223v-211h-223zM805 1648zM909 1712v211h223v-211h-223z" />
<glyph unicode="&#xd7;" horiz-adv-x="1229" d="M96 236l333 333l-333 334l180 177l332 -326l332 326l180 -177l-333 -334l333 -333l-180 -180l-332 331l-332 -331z" />
<glyph unicode="&#xd8;" horiz-adv-x="1556" d="M-13 -72v284l110 103q-33 69 -33 206v350q0 359 141 520t482 161h230q243 0 411 -147l233 203v-289l-117 -104q34 -77 34 -335v-276q0 -342 -145 -481t-473 -139h-218q-126 0 -250 39t-179 107zM486 661l523 463q-49 72 -209 72q-200 0 -257 -63q-57 -62 -57 -265v-207z M534 406q68 -66 268 -66q146 0 200 57t54 206v262z" />
<glyph unicode="&#xd9;" horiz-adv-x="1579" d="M0 1552zM128 499v1037h410v-1004q0 -126 50 -159t209 -33q150 0 196 38q47 38 47 149v1009h410v-1019q0 -304 -142 -419q-141 -114 -488 -114q-390 0 -541 89q-151 90 -151 426zM794 1648zM887 0zM534 1789l101 227l427 -239l-56 -129zM794 1648z" />
<glyph unicode="&#xda;" horiz-adv-x="1579" d="M0 1552zM128 499v1037h410v-1004q0 -126 50 -159t209 -33q150 0 196 38q47 38 47 149v1009h410v-1019q0 -304 -142 -419q-141 -114 -488 -114q-390 0 -541 89q-151 90 -151 426zM794 1648zM887 0zM528 1777l427 239l101 -227l-472 -141zM794 1648z" />
<glyph unicode="&#xdb;" horiz-adv-x="1579" d="M0 1552zM128 499v1037h410v-1004q0 -126 50 -159t209 -33q150 0 196 38q47 38 47 149v1009h410v-1019q0 -304 -142 -419q-141 -114 -488 -114q-390 0 -541 89q-151 90 -151 426zM794 1648zM887 0zM412 1763l368 221l368 -221l-52 -115l-316 127l-316 -127zM794 1648z" />
<glyph unicode="&#xdc;" horiz-adv-x="1579" d="M0 1552zM128 499v1037h410v-1004q0 -126 50 -159t209 -33q150 0 196 38q47 38 47 149v1009h410v-1019q0 -304 -142 -419q-141 -114 -488 -114q-390 0 -541 89q-151 90 -151 426zM794 1648zM887 0zM467 1712v211h223v-211h-223zM794 1648zM898 1712v211h223v-211h-223z " />
<glyph unicode="&#xdd;" horiz-adv-x="1450" d="M-48 1536h467l304 -600l286 600h473l-560 -996v-540h-410v540zM0 1552zM705 1648zM439 1777l427 239l101 -227l-472 -141zM705 1648z" />
<glyph unicode="&#xde;" horiz-adv-x="1456" d="M122 0v1536h410v-200h364q290 0 403 -138q113 -137 113 -443q0 -337 -114 -446q-113 -109 -419 -109h-347v-200h-410zM532 556h277q118 0 149 35q32 35 32 180q0 131 -37 170t-126 39h-295v-424z" />
<glyph unicode="&#xdf;" horiz-adv-x="1264" d="M116 0v1137q0 211 98 311q99 100 422 100q295 0 391 -82q97 -82 97 -240q0 -231 -264 -280q184 -13 256 -107t72 -344q0 -282 -100 -397q-99 -114 -316 -114q-117 0 -192 12v250q39 -16 102 -16q97 0 125 56q29 56 29 229q0 194 -42 258t-182 64v234q106 0 146 19 q41 20 41 93q0 131 -173 131q-86 0 -122 -34q-36 -33 -36 -130v-1150h-352z" />
<glyph unicode="&#xe0;" horiz-adv-x="1247" d="M83 316q0 175 90 259q91 84 314 84q132 0 196 -28q64 -27 104 -100v205q0 133 -154 133q-76 0 -115 -24t-39 -98h-352q0 175 90 255q90 81 305 81h149q272 0 370 -85t98 -325v-673h-352v133q-41 -86 -118 -115t-209 -29q-202 0 -290 78q-87 79 -87 249zM435 325 q0 -110 155 -110q123 0 160 26q37 27 37 102q0 67 -47 84q-46 18 -143 18q-99 0 -131 -24q-31 -24 -31 -96zM623 1163zM1048 0zM363 1304l101 227l427 -239l-56 -129zM623 1163z" />
<glyph unicode="&#xe1;" horiz-adv-x="1247" d="M83 316q0 175 90 259q91 84 314 84q132 0 196 -28q64 -27 104 -100v205q0 133 -154 133q-76 0 -115 -24t-39 -98h-352q0 175 90 255q90 81 305 81h149q272 0 370 -85t98 -325v-673h-352v133q-41 -86 -118 -115t-209 -29q-202 0 -290 78q-87 79 -87 249zM435 325 q0 -110 155 -110q123 0 160 26q37 27 37 102q0 67 -47 84q-46 18 -143 18q-99 0 -131 -24q-31 -24 -31 -96zM623 1163zM1048 0zM357 1292l427 239l101 -227l-472 -141zM623 1163z" />
<glyph unicode="&#xe2;" horiz-adv-x="1247" d="M83 316q0 175 90 259q91 84 314 84q132 0 196 -28q64 -27 104 -100v205q0 133 -154 133q-76 0 -115 -24t-39 -98h-352q0 175 90 255q90 81 305 81h149q272 0 370 -85t98 -325v-673h-352v133q-41 -86 -118 -115t-209 -29q-202 0 -290 78q-87 79 -87 249zM435 325 q0 -110 155 -110q123 0 160 26q37 27 37 102q0 67 -47 84q-46 18 -143 18q-99 0 -131 -24q-31 -24 -31 -96zM623 1163zM1048 0zM241 1278l368 221l368 -221l-52 -115l-316 127l-316 -127zM623 1163z" />
<glyph unicode="&#xe3;" horiz-adv-x="1247" d="M83 316q0 175 90 259q91 84 314 84q132 0 196 -28q64 -27 104 -100v205q0 133 -154 133q-76 0 -115 -24t-39 -98h-352q0 175 90 255q90 81 305 81h149q272 0 370 -85t98 -325v-673h-352v133q-41 -86 -118 -115t-209 -29q-202 0 -290 78q-87 79 -87 249zM435 325 q0 -110 155 -110q123 0 160 26q37 27 37 102q0 67 -47 84q-46 18 -143 18q-99 0 -131 -24q-31 -24 -31 -96zM623 1163zM1048 0zM140 1338q114 198 268 198q83 0 191 -71q109 -71 164 -71q34 0 61 34q28 35 45 62l167 -82q-102 -205 -251 -205q-95 0 -209 71q-113 71 -146 71 q-68 0 -123 -96zM623 1163z" />
<glyph unicode="&#xe4;" horiz-adv-x="1247" d="M83 316q0 175 90 259q91 84 314 84q132 0 196 -28q64 -27 104 -100v205q0 133 -154 133q-76 0 -115 -24t-39 -98h-352q0 175 90 255q90 81 305 81h149q272 0 370 -85t98 -325v-673h-352v133q-41 -86 -118 -115t-209 -29q-202 0 -290 78q-87 79 -87 249zM435 325 q0 -110 155 -110q123 0 160 26q37 27 37 102q0 67 -47 84q-46 18 -143 18q-99 0 -131 -24q-31 -24 -31 -96zM623 1163zM1048 0zM296 1227v211h223v-211h-223zM623 1163zM727 1227v211h223v-211h-223z" />
<glyph unicode="&#xe5;" horiz-adv-x="1247" d="M83 316q0 175 90 259q91 84 314 84q132 0 196 -28q64 -27 104 -100v205q0 133 -154 133q-76 0 -115 -24t-39 -98h-352q0 175 90 255q90 81 305 81h149q272 0 370 -85t98 -325v-673h-352v133q-41 -86 -118 -115t-209 -29q-202 0 -290 78q-87 79 -87 249zM435 325 q0 -110 155 -110q123 0 160 26q37 27 37 102q0 67 -47 84q-46 18 -143 18q-99 0 -131 -24q-31 -24 -31 -96zM623 1163zM1048 0zM442 1342q0 83 57 141t139 58q83 0 141 -58q59 -58 59 -141q0 -81 -58 -138q-57 -57 -135 -57q-85 0 -144 57t-59 138zM550 1345q0 -39 26 -66 q26 -26 64 -26q35 0 62 26q28 27 28 66q0 35 -28 62q-27 28 -62 28q-38 0 -64 -28q-26 -27 -26 -62zM623 1163z" />
<glyph unicode="&#xe6;" horiz-adv-x="1898" d="M77 319q0 189 94 264q95 76 316 76q130 0 189 -26t105 -103v205q0 69 -31 101q-30 33 -117 33q-160 0 -160 -122h-352q0 190 102 263q103 73 300 73h148q241 0 299 -144q38 91 126 117q88 27 226 27q267 0 386 -100q72 -60 100 -161q29 -101 29 -348h-704q0 -147 35 -193 q36 -46 141 -46q92 0 134 23t42 99h352q0 -190 -103 -279q-102 -89 -406 -89q-129 0 -235 29q-105 29 -171 131q-46 -94 -141 -127q-94 -33 -278 -33q-247 0 -337 75q-89 75 -89 255zM429 325q0 -110 155 -110q113 0 155 22q42 23 42 106q0 67 -47 84q-46 18 -143 18 q-89 0 -126 -22q-36 -22 -36 -98zM1133 668h352q0 116 -42 158q-41 43 -135 43q-96 0 -136 -47q-39 -47 -39 -154z" />
<glyph unicode="&#xe7;" horiz-adv-x="1141" d="M66 532q0 320 113 435q113 116 419 116q287 0 397 -91q111 -90 111 -325h-352q0 90 -32 118t-133 28q-106 0 -139 -55q-32 -54 -32 -246q0 -167 30 -210q31 -43 135 -43q107 0 139 30q32 31 32 148h352q0 -287 -110 -368q-109 -80 -390 -80q-330 0 -435 111t-105 432z M598 0zM631 1163zM414 -248l261 166l91 -168l-296 -104zM598 0z" />
<glyph unicode="&#xe8;" horiz-adv-x="1176" d="M61 532q0 316 108 433q109 118 437 118q267 0 389 -102q122 -101 122 -507h-704q0 -147 36 -193q37 -46 144 -46q92 0 130 20q47 26 47 102h347q0 -212 -123 -290t-389 -78q-345 0 -445 131q-99 132 -99 412zM413 668h352q0 107 -40 138t-135 31q-105 0 -141 -34 t-36 -135zM618 1163zM709 0zM358 1304l101 227l427 -239l-56 -129zM618 1163z" />
<glyph unicode="&#xe9;" horiz-adv-x="1176" d="M61 532q0 316 108 433q109 118 437 118q267 0 389 -102q122 -101 122 -507h-704q0 -147 36 -193q37 -46 144 -46q92 0 130 20q47 26 47 102h347q0 -212 -123 -290t-389 -78q-345 0 -445 131q-99 132 -99 412zM413 668h352q0 107 -40 138t-135 31q-105 0 -141 -34 t-36 -135zM618 1163zM709 0zM352 1292l427 239l101 -227l-472 -141zM618 1163z" />
<glyph unicode="&#xea;" horiz-adv-x="1176" d="M61 532q0 316 108 433q109 118 437 118q267 0 389 -102q122 -101 122 -507h-704q0 -147 36 -193q37 -46 144 -46q92 0 130 20q47 26 47 102h347q0 -212 -123 -290t-389 -78q-345 0 -445 131q-99 132 -99 412zM413 668h352q0 107 -40 138t-135 31q-105 0 -141 -34 t-36 -135zM618 1163zM709 0zM236 1278l368 221l368 -221l-52 -115l-316 127l-316 -127zM618 1163z" />
<glyph unicode="&#xeb;" horiz-adv-x="1176" d="M61 532q0 316 108 433q109 118 437 118q267 0 389 -102q122 -101 122 -507h-704q0 -147 36 -193q37 -46 144 -46q92 0 130 20q47 26 47 102h347q0 -212 -123 -290t-389 -78q-345 0 -445 131q-99 132 -99 412zM413 668h352q0 107 -40 138t-135 31q-105 0 -141 -34 t-36 -135zM618 1163zM709 0zM291 1227v211h223v-211h-223zM618 1163zM722 1227v211h223v-211h-223z" />
<glyph unicode="&#xec;" horiz-adv-x="526" d="M0 1083zM88 0v1072h352v-1072h-352zM274 1163zM14 1304l101 227l427 -239l-56 -129zM274 1163z" />
<glyph unicode="&#xed;" horiz-adv-x="526" d="M0 1083zM88 0v1072h352v-1072h-352zM274 1163zM8 1292l427 239l101 -227l-472 -141zM274 1163z" />
<glyph unicode="&#xee;" horiz-adv-x="526" d="M0 1083zM88 0v1072h352v-1072h-352zM274 1163zM-108 1278l368 221l368 -221l-52 -115l-316 127l-316 -127zM274 1163z" />
<glyph unicode="&#xef;" horiz-adv-x="526" d="M0 1083zM88 0v1072h352v-1072h-352zM274 1163zM-53 1227v211h223v-211h-223zM274 1163zM378 1227v211h223v-211h-223z" />
<glyph unicode="&#xf0;" horiz-adv-x="1214" d="M72 538q0 289 86 414q87 126 301 126q99 0 159 -22t128 -79q-43 138 -119 237l-234 -72l-138 129l245 79q-54 53 -140 117l275 85q49 -23 152 -111l236 75l127 -133l-231 -74q113 -150 169 -328t56 -451q0 -336 -110 -439q-110 -102 -426 -102q-354 0 -445 126 q-91 127 -91 423zM424 535q0 -181 32 -229q33 -47 161 -47q116 0 145 50q30 50 30 229q0 175 -32 226q-31 52 -143 52q-130 0 -162 -53q-31 -52 -31 -228z" />
<glyph unicode="&#xf1;" horiz-adv-x="1268" d="M116 0v1072h352v-213q69 224 325 224q204 0 283 -89q80 -88 80 -275v-719h-352v610q0 116 -32 159q-31 44 -118 44q-93 0 -140 -51q-46 -50 -46 -174v-588h-352zM648 0zM701 1163zM218 1338q114 198 268 198q83 0 191 -71q109 -71 164 -71q34 0 61 34q28 35 45 62 l167 -82q-102 -205 -251 -205q-95 0 -209 71q-113 71 -146 71q-68 0 -123 -96zM701 1163z" />
<glyph unicode="&#xf2;" horiz-adv-x="1214" d="M72 536q0 335 103 441t441 106q342 0 435 -113t93 -447q0 -332 -110 -433t-426 -101q-331 0 -434 116q-102 116 -102 431zM424 534q0 -192 38 -234q38 -41 155 -41q116 0 145 49q30 50 30 228q0 179 -32 228q-31 49 -143 49q-129 0 -161 -50t-32 -229zM616 1163z M356 1304l101 227l427 -239l-56 -129zM616 1163z" />
<glyph unicode="&#xf3;" horiz-adv-x="1214" d="M72 536q0 335 103 441t441 106q342 0 435 -113t93 -447q0 -332 -110 -433t-426 -101q-331 0 -434 116q-102 116 -102 431zM424 534q0 -192 38 -234q38 -41 155 -41q116 0 145 49q30 50 30 228q0 179 -32 228q-31 49 -143 49q-129 0 -161 -50t-32 -229zM616 1163z M350 1292l427 239l101 -227l-472 -141zM616 1163z" />
<glyph unicode="&#xf4;" horiz-adv-x="1214" d="M72 536q0 335 103 441t441 106q342 0 435 -113t93 -447q0 -332 -110 -433t-426 -101q-331 0 -434 116q-102 116 -102 431zM424 534q0 -192 38 -234q38 -41 155 -41q116 0 145 49q30 50 30 228q0 179 -32 228q-31 49 -143 49q-129 0 -161 -50t-32 -229zM616 1163z M234 1278l368 221l368 -221l-52 -115l-316 127l-316 -127zM616 1163z" />
<glyph unicode="&#xf5;" horiz-adv-x="1214" d="M72 536q0 335 103 441t441 106q342 0 435 -113t93 -447q0 -332 -110 -433t-426 -101q-331 0 -434 116q-102 116 -102 431zM424 534q0 -192 38 -234q38 -41 155 -41q116 0 145 49q30 50 30 228q0 179 -32 228q-31 49 -143 49q-129 0 -161 -50t-32 -229zM616 1163z M133 1338q114 198 268 198q83 0 191 -71q109 -71 164 -71q34 0 61 34q28 35 45 62l167 -82q-102 -205 -251 -205q-95 0 -209 71q-113 71 -146 71q-68 0 -123 -96zM616 1163z" />
<glyph unicode="&#xf6;" horiz-adv-x="1214" d="M72 536q0 335 103 441t441 106q342 0 435 -113t93 -447q0 -332 -110 -433t-426 -101q-331 0 -434 116q-102 116 -102 431zM424 534q0 -192 38 -234q38 -41 155 -41q116 0 145 49q30 50 30 228q0 179 -32 228q-31 49 -143 49q-129 0 -161 -50t-32 -229zM616 1163z M289 1227v211h223v-211h-223zM616 1163zM720 1227v211h223v-211h-223z" />
<glyph unicode="&#xf7;" horiz-adv-x="1229" d="M103 448v236h1036v-236h-1036zM503 48v240h236v-240h-236zM503 844v240h236v-240h-236z" />
<glyph unicode="&#xf8;" horiz-adv-x="1260" d="M-6 5v169l120 84q-26 106 -26 277q0 361 113 454q114 94 427 94q232 0 320 -37q89 -37 128 -91l156 112v-173l-97 -75q25 -46 25 -296q0 -338 -110 -436q-109 -98 -423 -98q-183 0 -292 28q-108 29 -165 111zM440 497l346 247q-17 35 -56 52q-38 17 -99 17 q-113 0 -152 -35t-39 -124v-157zM458 336q28 -77 174 -77q99 0 137 36q39 37 39 162v127z" />
<glyph unicode="&#xf9;" horiz-adv-x="1260" d="M0 1083zM105 353v719h352v-632q0 -107 29 -144q30 -37 113 -37q91 0 142 47q52 48 52 121v645h352v-1072h-352v197q-65 -208 -312 -208q-376 0 -376 364zM613 1163zM1031 0zM353 1304l101 227l427 -239l-56 -129zM613 1163z" />
<glyph unicode="&#xfa;" horiz-adv-x="1260" d="M0 1083zM105 353v719h352v-632q0 -107 29 -144q30 -37 113 -37q91 0 142 47q52 48 52 121v645h352v-1072h-352v197q-65 -208 -312 -208q-376 0 -376 364zM613 1163zM1031 0zM347 1292l427 239l101 -227l-472 -141zM613 1163z" />
<glyph unicode="&#xfb;" horiz-adv-x="1260" d="M0 1083zM105 353v719h352v-632q0 -107 29 -144q30 -37 113 -37q91 0 142 47q52 48 52 121v645h352v-1072h-352v197q-65 -208 -312 -208q-376 0 -376 364zM613 1163zM1031 0zM231 1278l368 221l368 -221l-52 -115l-316 127l-316 -127zM613 1163z" />
<glyph unicode="&#xfc;" horiz-adv-x="1260" d="M0 1083zM105 353v719h352v-632q0 -107 29 -144q30 -37 113 -37q91 0 142 47q52 48 52 121v645h352v-1072h-352v197q-65 -208 -312 -208q-376 0 -376 364zM613 1163zM1031 0zM286 1227v211h223v-211h-223zM613 1163zM717 1227v211h223v-211h-223z" />
<glyph unicode="&#xfd;" horiz-adv-x="1092" d="M-17 1072h369l210 -877l183 877h358l-278 -1191q-49 -210 -154 -284q-105 -73 -293 -73q-88 0 -131 8v246q18 -8 57 -8q79 0 129 46q51 46 62 186h-193zM0 1083zM530 1163zM264 1292l427 239l101 -227l-472 -141zM530 1163z" />
<glyph unicode="&#xfe;" horiz-adv-x="1266" d="M105 -464v2000h352v-613q50 90 117 125t198 35q208 0 306 -97q99 -97 99 -307v-241q0 -241 -94 -345t-303 -104q-248 0 -323 160v-613h-352zM457 514q0 -150 38 -203q39 -52 133 -52q120 0 158 55q39 56 39 231q0 168 -36 218t-154 50q-114 0 -146 -54q-32 -53 -32 -245z " />
<glyph unicode="&#xff;" horiz-adv-x="1092" d="M-17 1072h369l210 -877l183 877h358l-278 -1191q-49 -210 -154 -284q-105 -73 -293 -73q-88 0 -131 8v246q18 -8 57 -8q79 0 129 46q51 46 62 186h-193zM0 1083zM530 1163zM203 1227v211h223v-211h-223zM530 1163zM634 1227v211h223v-211h-223z" />
<glyph unicode="&#x152;" horiz-adv-x="2255" d="M83 586v311q0 363 128 509q129 146 455 146q192 0 285 -47t140 -145v176h1075v-334h-691v-286h646v-284h-646v-298h704v-334h-1088v176q-68 -111 -148 -152q-79 -40 -226 -40q-362 0 -498 135q-136 136 -136 467zM493 599q0 -173 56 -227t198 -54q198 0 268 56t70 271 v306q0 164 -68 215q-67 52 -256 52q-169 0 -219 -59q-49 -58 -49 -215v-345z" />
<glyph unicode="&#x153;" horiz-adv-x="1884" d="M66 536q0 318 93 432q93 115 416 115q184 0 259 -36q75 -35 118 -108q43 81 113 112q70 32 225 32q316 0 426 -109t110 -407v-93h-704q0 -147 36 -193q37 -46 144 -46q92 0 134 23q43 23 43 99h347q0 -202 -116 -285t-408 -83q-178 0 -250 42t-102 118q-45 -85 -116 -123 q-71 -37 -267 -37q-310 0 -406 110q-95 110 -95 437zM418 534q0 -182 31 -229q32 -46 146 -46q111 0 143 48q32 49 32 257q0 179 -39 214t-136 35q-122 0 -150 -47q-27 -46 -27 -232zM1122 668h352q0 113 -41 157q-40 44 -136 44t-136 -48q-39 -47 -39 -153z" />
<glyph unicode="&#x178;" horiz-adv-x="1450" d="M-48 1536h467l304 -600l286 600h473l-560 -996v-540h-410v540zM0 1552zM705 1648zM378 1712v211h223v-211h-223zM705 1648zM809 1712v211h223v-211h-223z" />
<glyph unicode="&#x2c6;" horiz-adv-x="1049" d="M160 1283l368 221l368 -221l-52 -115l-316 127l-316 -127zM542 1168z" />
<glyph unicode="&#x2dc;" horiz-adv-x="1198" d="M160 1343q114 198 268 198q83 0 191 -71q109 -71 164 -71q34 0 61 34q28 35 45 62l167 -82q-102 -205 -251 -205q-95 0 -209 71q-113 71 -146 71q-68 0 -123 -96zM643 1168z" />
<glyph unicode="&#x2000;" horiz-adv-x="1013" />
<glyph unicode="&#x2001;" horiz-adv-x="2026" />
<glyph unicode="&#x2002;" horiz-adv-x="1013" />
<glyph unicode="&#x2003;" horiz-adv-x="2026" />
<glyph unicode="&#x2004;" horiz-adv-x="675" />
<glyph unicode="&#x2005;" horiz-adv-x="506" />
<glyph unicode="&#x2006;" horiz-adv-x="337" />
<glyph unicode="&#x2007;" horiz-adv-x="337" />
<glyph unicode="&#x2008;" horiz-adv-x="253" />
<glyph unicode="&#x2009;" horiz-adv-x="405" />
<glyph unicode="&#x200a;" horiz-adv-x="112" />
<glyph unicode="&#x2010;" horiz-adv-x="557" d="M0 396v334h560v-334h-560z" />
<glyph unicode="&#x2011;" horiz-adv-x="557" d="M0 396v334h560v-334h-560z" />
<glyph unicode="&#x2012;" horiz-adv-x="557" d="M0 396v334h560v-334h-560z" />
<glyph unicode="&#x2013;" horiz-adv-x="1024" d="M0 396v334h1024v-334h-1024z" />
<glyph unicode="&#x2014;" horiz-adv-x="2048" d="M0 396v334h2048v-334h-2048z" />
<glyph unicode="&#x2018;" horiz-adv-x="541" d="M443 1536v-156q-80 0 -112 -28q-33 -29 -33 -104h129v-345h-336v329q0 182 75 243t277 61z" />
<glyph unicode="&#x2019;" horiz-adv-x="541" d="M98 903v156q80 0 112 28q33 29 33 104h-129v345h336v-329q0 -182 -75 -243t-277 -61z" />
<glyph unicode="&#x201a;" horiz-adv-x="541" d="M98 -289v156q80 0 112 28q33 29 33 104h-129v345h336v-329q0 -182 -75 -243t-277 -61z" />
<glyph unicode="&#x201c;" horiz-adv-x="1001" d="M903 1536v-156q-80 0 -112 -28q-33 -29 -33 -104h129v-345h-336v329q0 182 75 243t277 61zM439 1536v-156q-80 0 -112 -28q-33 -29 -33 -104h129v-345h-336v329q0 182 75 243t277 61z" />
<glyph unicode="&#x201d;" horiz-adv-x="1001" d="M98 903v156q80 0 112 28q33 29 33 104h-129v345h336v-329q0 -182 -75 -243t-277 -61zM562 903v156q80 0 112 28q33 29 33 104h-129v345h336v-329q0 -182 -75 -243t-277 -61z" />
<glyph unicode="&#x201e;" horiz-adv-x="1001" d="M94 -289v156q80 0 112 28q33 29 33 104h-129v345h336v-329q0 -182 -75 -243t-277 -61zM558 -289v156q80 0 112 28q33 29 33 104h-129v345h336v-329q0 -182 -75 -243t-277 -61z" />
<glyph unicode="&#x2022;" horiz-adv-x="1229" d="M228 764q0 159 108 274q109 116 270 116q166 0 278 -113t112 -274q0 -158 -116 -270q-115 -111 -274 -111q-154 0 -266 111t-112 267z" />
<glyph unicode="&#x2026;" horiz-adv-x="2048" d="M176 0v356h332v-356h-332zM864 0v356h332v-356h-332zM1552 0v356h332v-356h-332z" />
<glyph unicode="&#x202f;" horiz-adv-x="405" />
<glyph unicode="&#x2039;" horiz-adv-x="678" d="M586 190l-201 374l201 346l-218 134l-278 -480l263 -496z" />
<glyph unicode="&#x203a;" horiz-adv-x="676" d="M88 190l201 374l-201 346l218 134l278 -480l-263 -496z" />
<glyph unicode="&#x205f;" horiz-adv-x="506" />
<glyph unicode="&#x20ac;" d="M-6 570l30 158h134v112h-164l30 158h134q0 322 157 441q148 113 536 113q367 0 477 -107t115 -397v-26h-389v25q0 167 -246 167q-150 0 -203 -44q-52 -43 -58 -172h432l-36 -158h-396v-112h368l-36 -158h-332q4 -144 50 -191q53 -57 215 -57q147 0 194 40q48 40 48 160 v24h389v-53q0 -259 -125 -380q-130 -129 -421 -129h-177q-273 0 -407 114q-155 135 -155 446v26h-164z" />
<glyph unicode="&#x2122;" horiz-adv-x="1761" d="M-11 1365v171h711v-171h-251v-661h-209v661h-251zM791 704v832h300l185 -491l186 491h300v-832h-190v673l-242 -673h-107l-242 673v-673h-190z" />
<glyph unicode="&#xe000;" horiz-adv-x="1070" d="M0 1070h1070v-1070h-1070v1070z" />
<glyph unicode="&#xfb01;" horiz-adv-x="1331" d="M893 0v1072h352v-1072h-352zM893 1264v270h352v-270h-352zM1143 0zM32 814v258h144v114q0 197 107 273q107 77 397 77h72v-270q-13 2 -36 7q-22 5 -34 5h-21q-72 0 -103 -27q-30 -27 -30 -142v-37h240v-258h-240v-814h-352v814h-144z" />
<glyph unicode="&#xfb02;" horiz-adv-x="1397" d="M926 0v1536h352v-1536h-352zM1110 1584zM1112 0zM32 814v258h144v114q0 197 107 273q107 77 397 77h72v-270q-13 2 -36 7q-22 5 -34 5h-21q-72 0 -103 -27q-30 -27 -30 -142v-37h240v-258h-240v-814h-352v814h-144z" />
<glyph unicode="&#xfb03;" horiz-adv-x="2136" d="M1698 0v1072h352v-1072h-352zM1698 1264v270h352v-270h-352zM1948 0zM837 814v258h144v114q0 197 107 273q107 77 397 77h72v-270q-13 2 -36 7q-22 5 -34 5h-21q-72 0 -103 -27q-30 -27 -30 -142v-37h240v-258h-240v-814h-352v814h-144zM32 814v258h144v114 q0 197 107 273q107 77 397 77h72v-270q-13 2 -36 7q-22 5 -34 5h-21q-72 0 -103 -27q-30 -27 -30 -142v-37h240v-258h-240v-814h-352v814h-144z" />
<glyph unicode="&#xfb04;" horiz-adv-x="2202" d="M1731 0v1536h352v-1536h-352zM1915 1584zM1917 0zM837 814v258h144v114q0 197 107 273q107 77 397 77h72v-270q-13 2 -36 7q-22 5 -34 5h-21q-72 0 -103 -27q-30 -27 -30 -142v-37h240v-258h-240v-814h-352v814h-144zM32 814v258h144v114q0 197 107 273q107 77 397 77h72 v-270q-13 2 -36 7q-22 5 -34 5h-21q-72 0 -103 -27q-30 -27 -30 -142v-37h240v-258h-240v-814h-352v814h-144z" />
<glyph horiz-adv-x="446" d="M-352 0l909 1536h243l-909 -1536h-243z" />
<glyph horiz-adv-x="885" d="M16 812v263l391 477h393v-563h83v-177h-83v-179h-254v179h-530zM226 989h320v384z" />
<glyph horiz-adv-x="707" d="M160 1347q0 83 57 141t139 58q83 0 141 -58q59 -58 59 -141q0 -81 -58 -138q-57 -57 -135 -57q-85 0 -144 57t-59 138zM268 1350q0 -39 26 -66q26 -26 64 -26q35 0 62 26q28 27 28 66q0 35 -28 62q-27 28 -62 28q-38 0 -64 -28q-26 -27 -26 -62zM341 1168z" />
<glyph horiz-adv-x="526" d="M0 1083zM88 0v1072h352v-1072h-352zM274 1163z" />
</font>
</defs>
</svg>
